<?xml version="1.0" encoding="UTF-8"?>
<svg version="1.1" xmlns="http://www.w3.org/2000/svg" width="500" height="500">
<path d="M0 0 C0.88125549 -0.01552917 1.76251099 -0.03105835 2.67047119 -0.04705811 C22.42415067 -0.32106416 39.79838309 4.95091137 56.875 14.75 C57.48569336 15.09933594 58.09638672 15.44867188 58.72558594 15.80859375 C70.48902901 22.66693856 84.85248643 32.40109049 90.0625 45.4375 C92.06056903 50.58799621 92.06056903 50.58799621 96.25 53.984375 C99.74514618 56.3352769 101.13115772 59.29362155 102.875 63 C103.21748779 63.71091797 103.55997559 64.42183594 103.9128418 65.15429688 C116.53735135 92.0152086 119.02819154 122.71922661 110 151.125 C109.31190589 153.00752161 108.60360586 154.88278426 107.875 156.75 C107.50503906 157.74386719 107.13507813 158.73773438 106.75390625 159.76171875 C96.79095918 185.27339633 75.704133 207.44896492 51.13671875 219.35546875 C48.68277374 220.40464045 46.28861173 221.31678002 43.76953125 222.17578125 C32.88011364 226.00110074 27.09641783 230.8165704 20.21728516 240.01171875 C18.17132817 242.66126653 15.91290627 245.05586341 13.625 247.5 C9.12800281 252.39721539 4.95195891 257.50006129 0.875 262.75 C-6.26209789 259.61663995 -11.28410003 252.6848301 -16.2734375 246.88671875 C-19.07055198 243.65882504 -21.94732406 240.50373072 -24.81640625 237.33984375 C-27.125 234.75 -27.125 234.75 -28.29394531 233.09204102 C-32.83724712 226.96396425 -38.87088867 224.71931027 -45.75 221.8125 C-60.41991923 215.31057718 -71.61245612 207.8355451 -83.125 196.75 C-83.83269531 196.11707031 -84.54039062 195.48414063 -85.26953125 194.83203125 C-99.99795779 181.24348294 -109.13143682 161.84275987 -114.125 142.75 C-114.44597656 141.5434375 -114.76695312 140.336875 -115.09765625 139.09375 C-121.47683719 110.8473302 -116.38240093 80.35548027 -101.125 55.75 C-92.80090398 42.98037863 -83.34345209 31.9703109 -71.125 22.75 C-70.30773437 22.07582031 -69.49046875 21.40164062 -68.6484375 20.70703125 C-64.4653593 17.46287927 -59.79720023 15.20840902 -55.125 12.75 C-54.26390625 12.25242187 -53.4028125 11.75484375 -52.515625 11.2421875 C-35.75882776 1.99204798 -18.80541763 0.15059601 0 0 Z M44.0390625 105.15234375 C40.88970902 109.47477855 41.22632777 115.66746227 41.875 120.75 C43.66546047 125.86809675 46.39253727 128.87524045 51.25 131.25 C56.01851331 133.00765036 60.12415046 134.01642884 64.9453125 131.796875 C69.04110826 129.40892028 72.54141615 126.95045094 74.875 122.75 C76.29282134 117.05902268 76.35391603 111.90568608 73.953125 106.50390625 C71.46862235 102.46208854 68.16709349 100.30375435 63.8125 98.4375 C55.52073157 96.49687335 49.83180792 99.34410971 44.0390625 105.15234375 Z M-74.9375 105.8125 C-78.85492091 111.07303665 -78.78033398 116.39690116 -78.125 122.75 C-75.93252661 127.21614949 -73.22457073 129.97659139 -69.125 132.75 C-62.40430257 133.99998479 -55.82586966 133.79918797 -49.9375 130.125 C-45.75987306 126.78600449 -43.53249607 123.85323934 -42.8203125 118.4296875 C-42.50530958 112.3705137 -43.52272121 107.68182648 -47.125 102.75 C-50.96145104 98.81517842 -54.32845748 98.44282066 -59.625 98.25 C-66.74920815 98.49287073 -70.2873434 100.55978789 -74.9375 105.8125 Z M-15.4375 105.375 C-17.96940209 110.43880418 -19.0762671 115.48211774 -17.4609375 121.03125 C-14.96083081 126.47863694 -11.75196202 129.63214382 -6.1875 132 C-0.29608797 133.44279478 3.69893432 132.96188656 8.9765625 130.0703125 C12.88044368 127.35526757 15.18121733 124.14592027 16.50390625 119.578125 C17.39577138 114.13305365 16.86060491 109.45011069 13.875 104.75 C10.67763454 100.91479693 7.62874444 99.02803266 2.671875 98.2421875 C-5.49884188 97.96236843 -9.94830948 99.14402697 -15.4375 105.375 Z " fill="#05BD9C" transform="translate(251.125,101.25)"/>
<path d="M0 0 C0 11.55 0 23.1 0 35 C-5.61 35.99 -11.22 36.98 -17 38 C-21.05209696 38.90375837 -25.04988212 39.83312729 -29.0625 40.875 C-30.01576172 41.10574219 -30.96902344 41.33648437 -31.95117188 41.57421875 C-37.36141524 42.96872669 -41.69346173 44.72482828 -46.3215332 47.86230469 C-48.31120723 49.21094192 -50.37405283 50.20007909 -52.5625 51.1875 C-63.8756198 56.748186 -73.99561098 64.22325002 -83 73 C-84.32283311 74.23706852 -85.64575791 75.474039 -86.96875 76.7109375 C-111.57953236 100.09767399 -130.24756368 134.42764339 -131.16113281 169.03491211 C-131.18095759 170.4489863 -131.19471581 171.8631556 -131.203125 173.27734375 C-131.20882507 174.04695938 -131.21452515 174.81657501 -131.22039795 175.60951233 C-131.22978632 177.2322556 -131.23635718 178.85501741 -131.24023438 180.4777832 C-131.24985216 182.9002637 -131.28089754 185.32186159 -131.3125 187.74414062 C-131.58300243 227.82958623 -114.93427558 262.92537097 -87.25 291.25 C-73.51784868 304.88480698 -57.34784135 314.37929211 -39.859375 322.44921875 C-33.6587413 325.31178124 -29.5239279 328.89632504 -25 334 C-24.42765625 334.64066406 -23.8553125 335.28132813 -23.265625 335.94140625 C-22.11636684 337.24618329 -20.97457986 338.55757395 -19.83984375 339.875 C-16.29108659 343.97377684 -12.63344919 347.97638177 -9 352 C-0.43139793 361.48872041 -0.43139793 361.48872041 3.4375 365.9375 C7.87450341 371.03377514 12.44259466 376.01161267 17 381 C25.37001204 374.26759902 32.20260739 366.10074888 39.23046875 358.01953125 C43.53869748 353.10263444 47.94686156 348.27360968 52.328125 343.421875 C53.08609375 342.58140625 53.8440625 341.7409375 54.625 340.875 C55.37007812 340.05257813 56.11515625 339.23015625 56.8828125 338.3828125 C58.21750036 336.88067303 59.52863324 335.35694398 60.8046875 333.8046875 C67.45298331 325.74707553 75.63054064 321.61889311 84.84887695 317.0949707 C105.42652951 306.9223685 123.38622813 292.56423436 137 274 C137.77988281 272.93652344 138.55976563 271.87304688 139.36328125 270.77734375 C153.98084791 250.18259991 163.21529407 226.06235341 166 201 C176.89 201 187.78 201 199 201 C199 195.39 199 189.78 199 184 C201.07785796 188.15571592 201.34869332 191.00634068 201.3125 195.5 C201.30686035 196.24338623 201.3012207 196.98677246 201.29541016 197.75268555 C200.27627482 246.37351333 174.31423623 288.83175963 140.46484375 321.8515625 C134.73798885 327.2860187 128.64481379 331.76501761 122 336 C120.94683594 336.6909375 119.89367187 337.381875 118.80859375 338.09375 C112.93796099 341.8394298 106.9500456 345.04636882 100.6875 348.0625 C94.62756172 351.01366723 89.65720533 354.03885074 85 359 C84.19175781 359.85851562 83.38351562 360.71703125 82.55078125 361.6015625 C78.248699 366.27018987 74.0729316 371.0472395 69.91015625 375.83984375 C67.47577934 378.59283032 64.98898178 381.29651583 62.5 384 C58.85585671 387.95862186 55.26086283 391.9517676 51.734375 396.015625 C47.44320048 400.9253472 43.04197892 405.73874818 38.671875 410.578125 C34.06992997 415.680962 29.51166024 420.81726902 25 426 C23.68786505 427.50031934 22.37537249 429.00032601 21.0625 430.5 C20.47597656 431.1703125 19.88945312 431.840625 19.28515625 432.53125 C18.86105469 433.0159375 18.43695313 433.500625 18 434 C13.81220353 430.73147592 10.35282791 427.26697275 6.91015625 423.2265625 C4.85999721 420.83680656 2.74756846 418.51309675 0.625 416.1875 C-2.55759788 412.66989182 -5.59117962 409.07252949 -8.5625 405.375 C-11.82115018 401.34263218 -15.24467572 397.69948891 -18.96484375 394.09765625 C-22.16608476 390.79810458 -24.96341597 387.18352917 -27.83984375 383.6015625 C-30.19152123 380.76934333 -32.69429893 378.21345264 -35.3359375 375.65625 C-37.06159477 373.93869441 -38.65757332 372.1539792 -40.25 370.3125 C-40.83394531 369.64863281 -41.41789062 368.98476563 -42.01953125 368.30078125 C-43.48672616 366.59628855 -44.91611344 364.85909234 -46.32421875 363.10546875 C-52.31654098 355.86134547 -58.18589709 351.93696708 -66.68359375 348.046875 C-108.09065513 328.96947461 -139.87285595 290.26995318 -156.04785156 248.27978516 C-157.0377735 245.55433014 -157.97119956 242.81764963 -158.875 240.0625 C-159.13700195 239.27907227 -159.39900391 238.49564453 -159.66894531 237.68847656 C-164.81835022 220.99752998 -166.65432924 204.0734929 -166.46655273 186.67578125 C-166.43736505 183.73641015 -166.44606208 180.79883252 -166.45898438 177.859375 C-166.42484529 147.86693728 -158.41994374 119.26561579 -144 93 C-143.65211426 92.36610352 -143.30422852 91.73220703 -142.94580078 91.07910156 C-134.83256358 76.51611927 -124.47316597 64.02508212 -113 52 C-112.17757812 51.12472656 -111.35515625 50.24945313 -110.5078125 49.34765625 C-83.68892574 21.54341104 -38.92118447 0 0 0 Z " fill="#514E5E" transform="translate(233,33)"/>
<path d="M0 0 C14.07620724 0 14.07620724 0 20.75 1.5 C21.93203003 1.75958496 21.93203003 1.75958496 23.13793945 2.02441406 C54.82490411 9.37336066 84.49740822 24.31008428 108 47 C108.63341309 47.60231445 109.26682617 48.20462891 109.91943359 48.82519531 C122.49794349 60.82814221 132.30023178 72.9436676 141 88 C142.01978463 89.66730854 143.04063218 91.3339674 144.0625 93 C156.68951031 114.18713937 166 141.10142055 166 166 C154.78 166 143.56 166 132 166 C129.78126785 157.12507139 129.78126785 157.12507139 128.921875 152.93359375 C126.56783131 141.78142537 123.92929076 131.33001132 119 121 C118.65340332 120.26716797 118.30680664 119.53433594 117.94970703 118.77929688 C108.99756136 100.15759964 96.98591843 83.24057286 81 70 C80.16597656 69.28972656 79.33195312 68.57945313 78.47265625 67.84765625 C55.48704965 48.5555761 29.41617118 38.56457829 0 34 C0 22.78 0 11.56 0 0 Z " fill="#07BD9D" transform="translate(268,34)"/>
<path d="M0 0 C0 0.66 0 1.32 0 2 C-2.84777943 4.61046448 -5.13066838 6.42676569 -9 7 C-9 7.99 -9 8.98 -9 10 C-9.99 10 -10.98 10 -12 10 C-12 9.34 -12 8.68 -12 8 C-12.99 7.67 -13.98 7.34 -15 7 C-12.87767021 5.82823482 -10.75242209 4.66245215 -8.625 3.5 C-7.72007812 2.99919922 -7.72007812 2.99919922 -6.796875 2.48828125 C-2.2265625 0 -2.2265625 0 0 0 Z " fill="#1BBA9D" transform="translate(206,110)"/>
<path d="M0 0 C0.99 0 1.98 0 3 0 C3 0.66 3 1.32 3 2 C3.66 2.33 4.32 2.66 5 3 C-0.75 8 -0.75 8 -3 8 C-3 7.34 -3 6.68 -3 6 C-3.66 6 -4.32 6 -5 6 C-5 6.66 -5 7.32 -5 8 C-5.66 8 -6.32 8 -7 8 C-7 7.34 -7 6.68 -7 6 C-7.66 6 -8.32 6 -9 6 C-9 5.34 -9 4.68 -9 4 C-5.37 4 -1.74 4 2 4 C2 3.34 2 2.68 2 2 C1.34 2 0.68 2 0 2 C0 1.34 0 0.68 0 0 Z " fill="#14BAA1" transform="translate(315,306)"/>
<path d="M0 0 C4.95694043 0.70813435 8.45443775 2.45443775 12 6 C11.625 8.125 11.625 8.125 11 10 C9.16375669 8.52444734 7.3310715 7.04446569 5.5 5.5625 C4.4790625 4.73878906 3.458125 3.91507812 2.40625 3.06640625 C1.6121875 2.38449219 0.818125 1.70257813 0 1 C0 0.67 0 0.34 0 0 Z " fill="#13BA99" transform="translate(338,94)"/>
<path d="M0 0 C0.66 0 1.32 0 2 0 C2 3.3 2 6.6 2 10 C2.66 10 3.32 10 4 10 C4 11.32 4 12.64 4 14 C2.35 14 0.7 14 -1 14 C-0.9278125 13.15695313 -0.855625 12.31390625 -0.78125 11.4453125 C-0.6884375 10.34960938 -0.595625 9.25390625 -0.5 8.125 C-0.4071875 7.03445312 -0.314375 5.94390625 -0.21875 4.8203125 C-0.09437042 3.21670436 0 1.60842449 0 0 Z " fill="#18BB9F" transform="translate(326,212)"/>
<path d="M0 0 C2.53833449 1.26916725 2.89400901 2.41624809 4.125 4.9375 C4.47820312 5.64777344 4.83140625 6.35804688 5.1953125 7.08984375 C6 9 6 9 6 11 C3 10 3 10 1 8 C0.875 5.375 0.875 5.375 1 3 C0.34 3 -0.32 3 -1 3 C-0.67 2.01 -0.34 1.02 0 0 Z " fill="#23BFA1" transform="translate(410,125)"/>
<path d="M0 0 C0.66 0.33 1.32 0.66 2 1 C1.6875 4.375 1.6875 4.375 1 8 C0.01 8.66 -0.98 9.32 -2 10 C-2 9.34 -2 8.68 -2 8 C-2.99 7.67 -3.98 7.34 -5 7 C-3.35 4.69 -1.7 2.38 0 0 Z " fill="#585563" transform="translate(101,107)"/>
<path d="M0 0 C3.63 2.31 7.26 4.62 11 7 C7.86650268 8.04449911 7.01031744 7.93423645 4 7 C4 6.01 4 5.02 4 4 C2.68 4 1.36 4 0 4 C0 2.68 0 1.36 0 0 Z " fill="#1CBD9B" transform="translate(354,64)"/>
<path d="M0 0 C0.99 0.33 1.98 0.66 3 1 C0.69 3.64 -1.62 6.28 -4 9 C-4.66 8.01 -5.32 7.02 -6 6 C-5.34 5.67 -4.68 5.34 -4 5 C-3.67 4.01 -3.34 3.02 -3 2 C-2.01 2 -1.02 2 0 2 C0 1.34 0 0.68 0 0 Z " fill="#19BA99" transform="translate(267,342)"/>
<path d="M0 0 C-3.465 2.97 -3.465 2.97 -7 6 C-7.33 4.68 -7.66 3.36 -8 2 C-5.14066998 -0.85933002 -3.8625627 -1.2875209 0 0 Z " fill="#1BBD9D" transform="translate(330,301)"/>
<path d="M0 0 C0.66 0.66 1.32 1.32 2 2 C1.34 3.65 0.68 5.3 0 7 C-1.32 5.68 -2.64 4.36 -4 3 C-2.68 2.01 -1.36 1.02 0 0 Z " fill="#595765" transform="translate(190,392)"/>
<path d="M0 0 C1.2065625 0.0309375 1.2065625 0.0309375 2.4375 0.0625 C0.79580472 2.08304804 -0.87161778 4.08293058 -2.5625 6.0625 C-2.8925 6.0625 -3.2225 6.0625 -3.5625 6.0625 C-3.605221 4.39638095 -3.60313832 2.72867115 -3.5625 1.0625 C-2.5625 0.0625 -2.5625 0.0625 0 0 Z " fill="#16BC9A" transform="translate(335.5625,291.9375)"/>
<path d="M0 0 C1 2 1 2 0.44140625 3.9453125 C0.15136719 4.66460937 -0.13867188 5.38390625 -0.4375 6.125 C-0.72496094 6.84945312 -1.01242188 7.57390625 -1.30859375 8.3203125 C-1.53675781 8.87460938 -1.76492187 9.42890625 -2 10 C-2.99 10 -3.98 10 -5 10 C-3.84414715 6.08788267 -2.64465038 3.1254959 0 0 Z " fill="#20BC9C" transform="translate(151,156)"/>
<path d="M0 0 C1.33597652 0.80814651 2.668725 1.62163181 4 2.4375 C5.11375 3.11619141 5.11375 3.11619141 6.25 3.80859375 C6.8275 4.20175781 7.405 4.59492187 8 5 C8 5.33 8 5.66 8 6 C6.02 6 4.04 6 2 6 C0.99983813 3.99967627 0.50603992 2.16874252 0 0 Z " fill="#27BDA1" transform="translate(314,120)"/>
<path d="M0 0 C-0.33 1.65 -0.66 3.3 -1 5 C-2.65 3.35 -4.3 1.7 -6 0 C-3.50907189 -1.24546405 -2.58919267 -0.7767578 0 0 Z " fill="#5A5864" transform="translate(134,354)"/>
<path d="M0 0 C0.66 0 1.32 0 2 0 C2.66 1.98 3.32 3.96 4 6 C2.68 6 1.36 6 0 6 C0 4.02 0 2.04 0 0 Z " fill="#19C49F" transform="translate(420,148)"/>
<path d="M0 0 C0.66 0.33 1.32 0.66 2 1 C2 1.99 2 2.98 2 4 C0.02 4.66 -1.96 5.32 -4 6 C-4 5.34 -4 4.68 -4 4 C-3.34 4 -2.68 4 -2 4 C-1.34 2.68 -0.68 1.36 0 0 Z " fill="#29C1A6" transform="translate(302,316)"/>
<path d="M0 0 C2.18975773 3.28463659 2.99806563 6.20696275 4 10 C3.01 10 2.02 10 1 10 C0.67 6.7 0.34 3.4 0 0 Z " fill="#26BB9F" transform="translate(356,170)"/>
<path d="M0 0 C1.9375 0.3125 1.9375 0.3125 4 1 C4.33 1.99 4.66 2.98 5 4 C4.01 5.485 4.01 5.485 3 7 C0 2.25 0 2.25 0 0 Z " fill="#28C0A2" transform="translate(382,144)"/>
<path d="M0 0 C1.98 1.65 3.96 3.3 6 5 C4.68 5.33 3.36 5.66 2 6 C2 5.34 2 4.68 2 4 C1.34 4 0.68 4 0 4 C0 2.68 0 1.36 0 0 Z " fill="#28BEA4" transform="translate(386,92)"/>
</svg>
